<svg xmlns="http://www.w3.org/2000/svg" viewBox="0 0 750 500"><g id="freepik--background-simple--inject-196"><path d="M624.53,129S521.74,23.75,388.17,15.62,176.71,93.78,139.8,145.24,10.84,282.44,21.67,361,139,499,291.51,472.86s196.74-36.1,266.23-16.24,159.74-9.93,161.55-122.74S624.53,129,624.53,129Z" style="fill:#4E60FF"></path><path d="M624.53,129S521.74,23.75,388.17,15.62,176.71,93.78,139.8,145.24,10.84,282.44,21.67,361,139,499,291.51,472.86s196.74-36.1,266.23-16.24,159.74-9.93,161.55-122.74S624.53,129,624.53,129Z" style="fill:#fff;opacity:0.7000000000000001"></path></g><g id="freepik--Floor--inject-196"><line x1="25.61" y1="385.85" x2="708.36" y2="385.85" style="fill:none;stroke:#263238;stroke-linecap:round;stroke-linejoin:round"></line><polyline points="719.22 388.87 503.88 388.26 415.73 471.86" style="fill:none;stroke:#263238;stroke-linecap:round;stroke-linejoin:round"></polyline><polyline points="8.24 388.42 487.72 388.42 466.62 402.94 103.82 402.94" style="fill:none;stroke:#263238;stroke-linecap:round;stroke-linejoin:round"></polyline><polyline points="42.26 433.4 429.99 433.4 463.56 407.5 66.07 407.5" style="fill:none;stroke:#263238;stroke-linecap:round;stroke-linejoin:round"></polyline><polyline points="385.81 470.45 424.75 438.43 34.55 438.43" style="fill:none;stroke:#263238;stroke-linecap:round;stroke-linejoin:round"></polyline></g><g id="freepik--Arrow--inject-196"><polyline points="48.24 286.33 261.53 185.34 367.74 218.43 635.88 53.89 620.21 37.35 698.56 31.25 670.7 90.45 650.68 68.69 372.97 273.27 263.27 243.67 36.05 345.53" style="fill:none;stroke:#000;stroke-linecap:round;stroke-linejoin:round;opacity:0.30000000000000004"></polyline></g><g id="freepik--Coins--inject-196"><g style="opacity:0.30000000000000004"><circle cx="398.7" cy="86.82" r="37.19" transform="translate(-7.07 43.84) rotate(-6.24)" style="fill:none;stroke:#000;stroke-linecap:round;stroke-linejoin:round"></circle><circle cx="398.7" cy="86.82" r="31.7" transform="translate(132.87 396.39) rotate(-61.63)" style="fill:none;stroke:#000;stroke-linecap:round;stroke-linejoin:round"></circle><path d="M412.19,93.18c0-10.66-15.12-10.9-15.12-15.35,0-2.34,1.23-3,3.76-3,2.16,0,4,.94,6.09,2.81l5-5.74a15.4,15.4,0,0,0-8.85-4.91V61h-6.56v6.17c-5.65,1.22-9,5.25-9,11.18,0,10.25,15.12,10.9,15.12,15.59,0,2.28-1.17,3.28-4.1,3.28-2.46,0-4.92-.94-8.09-3.28l-4.33,6.79a19.77,19.77,0,0,0,10.43,4.43V111h6.56v-6.3C409.17,103.24,412.19,98.83,412.19,93.18Z" style="fill:none;stroke:#000;stroke-linecap:round;stroke-linejoin:round"></path></g><g style="opacity:0.30000000000000004"><circle cx="178.15" cy="59.91" r="25.86" transform="translate(-7.83 32.75) rotate(-10.28)" style="fill:none;stroke:#000;stroke-linecap:round;stroke-linejoin:round"></circle><circle cx="178.15" cy="59.91" r="22.05" transform="translate(9.82 143.52) rotate(-45)" style="fill:none;stroke:#000;stroke-linecap:round;stroke-linejoin:round"></circle><path d="M187.53,64.33c0-7.41-10.51-7.58-10.51-10.67,0-1.63.86-2.12,2.61-2.12a6.25,6.25,0,0,1,4.24,2l3.46-4a10.66,10.66,0,0,0-6.15-3.41V41.92h-4.57v4.29A7.47,7.47,0,0,0,170.34,54c0,7.14,10.51,7.58,10.51,10.84,0,1.59-.81,2.29-2.85,2.29-1.71,0-3.42-.66-5.63-2.29l-3,4.73a13.8,13.8,0,0,0,7.25,3.08v4.09h4.57V72.34A7.73,7.73,0,0,0,187.53,64.33Z" style="fill:none;stroke:#000;stroke-linecap:round;stroke-linejoin:round"></path></g><g style="opacity:0.30000000000000004"><path d="M305.19,139.47A18.56,18.56,0,1,0,286.63,158,18.56,18.56,0,0,0,305.19,139.47Z" style="fill:none;stroke:#000;stroke-linecap:round;stroke-linejoin:round"></path><path d="M302.45,139.47a15.82,15.82,0,1,0-15.82,15.82A15.81,15.81,0,0,0,302.45,139.47Z" style="fill:none;stroke:#000;stroke-linecap:round;stroke-linejoin:round"></path><path d="M293.36,142.65c0-5.32-7.54-5.44-7.54-7.66,0-1.17.61-1.52,1.87-1.52a4.49,4.49,0,0,1,3,1.4l2.49-2.86a7.68,7.68,0,0,0-4.42-2.45v-3h-3.27v3.08a5.35,5.35,0,0,0-4.5,5.57c0,5.12,7.54,5.44,7.54,7.78,0,1.14-.59,1.64-2.05,1.64a6.7,6.7,0,0,1-4-1.64l-2.17,3.39a9.92,9.92,0,0,0,5.21,2.21v2.94h3.27v-3.15A5.54,5.54,0,0,0,293.36,142.65Z" style="fill:none;stroke:#000;stroke-linecap:round;stroke-linejoin:round"></path></g><g style="opacity:0.30000000000000004"><circle cx="549.69" cy="286.33" r="25.86" transform="translate(-42.17 102.36) rotate(-10.25)" style="fill:none;stroke:#000;stroke-linecap:round;stroke-linejoin:round"></circle><circle cx="549.69" cy="286.33" r="22.05" transform="translate(-67.49 343.15) rotate(-32.77)" style="fill:none;stroke:#000;stroke-linecap:round;stroke-linejoin:round"></circle><path d="M559.07,290.75c0-7.41-10.51-7.58-10.51-10.67,0-1.63.86-2.12,2.61-2.12a6.25,6.25,0,0,1,4.24,2l3.46-4a10.66,10.66,0,0,0-6.15-3.41v-4.17h-4.57v4.29a7.47,7.47,0,0,0-6.27,7.77c0,7.14,10.51,7.58,10.51,10.84,0,1.59-.81,2.29-2.85,2.29-1.71,0-3.42-.66-5.63-2.29l-3,4.73a13.8,13.8,0,0,0,7.25,3.08v4.09h4.57v-4.38A7.73,7.73,0,0,0,559.07,290.75Z" style="fill:none;stroke:#000;stroke-linecap:round;stroke-linejoin:round"></path></g><g style="opacity:0.30000000000000004"><circle cx="79.68" cy="171.1" r="25.86" transform="matrix(1, -0.07, 0.07, 1, -11.93, 6.08)" style="fill:none;stroke:#000;stroke-linecap:round;stroke-linejoin:round"></circle><circle cx="79.68" cy="171.1" r="22.05" transform="translate(-99.87 229.28) rotate(-82.98)" style="fill:none;stroke:#000;stroke-linecap:round;stroke-linejoin:round"></circle><path d="M89.06,175.52c0-7.41-10.51-7.58-10.51-10.67,0-1.63.86-2.12,2.61-2.12a6.25,6.25,0,0,1,4.24,2l3.46-4a10.69,10.69,0,0,0-6.15-3.41v-4.17H78.14v4.29a7.47,7.47,0,0,0-6.27,7.77c0,7.13,10.51,7.58,10.51,10.84,0,1.59-.81,2.29-2.85,2.29-1.71,0-3.43-.66-5.63-2.29l-3,4.73a13.8,13.8,0,0,0,7.25,3.08v4.09h4.57v-4.38A7.73,7.73,0,0,0,89.06,175.52Z" style="fill:none;stroke:#000;stroke-linecap:round;stroke-linejoin:round"></path></g></g><g id="freepik--character-4--inject-196"><path d="M614.39,383.23s-3.32,4.16-5.19,6-6.65,7.9-8.11,11.43,2.49,4.37,7.28,3.12,9.77-5.82,11.22-8.73,2.7-4.36,3.33-5.82.41-4.57.41-5.61S614.39,383.23,614.39,383.23Z" style="fill:#fff;stroke:#263238;stroke-linecap:round;stroke-linejoin:round"></path><path d="M681.75,381.36s3.33,15.8,4.57,18.71,6.24,9.56,9.15,5.82,4.37-10.39,1.45-15.17-8.73-12.48-8.73-12.48Z" style="fill:#fff;stroke:#263238;stroke-linecap:round;stroke-linejoin:round"></path><path d="M611.74,223l-.61,31.48s-2.55,49-.46,91.81c.63,13,1.53,38.23,1.53,38.23s2.61,3.07,4.45,3.23,8.6-1.85,8.6-1.85l5-32.15,1.86-24.8,7.39-63,2.61,1.39,20.73,68.32,17.5,47.13,7.68,4.76,3.07-8.44-7.06-49.9-13.82-81.37L663,224.38Z" style="fill:#263238;stroke:#263238;stroke-linecap:round;stroke-linejoin:round"></path><path d="M619,150.48l-37.4,2.88-14.35-49.8-1.53-11.7-13.09,4s1.78,8.32,3.31,9.66a12.25,12.25,0,0,0,4,2s9.41,64.81,10.56,64.81,33.15-.57,33.15-.57l8.63,57.15s4.22,5.56,16.3,6.32,24-.57,29.92-4.21,4.41-8.83,4.41-8.83,7.67-51.2,6-55-24.17-17.06-24.17-17.06Z" style="fill:#fff;stroke:#263238;stroke-linecap:round;stroke-linejoin:round"></path><path d="M563.39,94.1s-1.43-5.41-1.2-5.94,2.55-1.28,3.08-.82,1.73,6.53,1.58,6.91a3.35,3.35,0,0,1-2.55,1.11C563.47,95.15,563.39,94.1,563.39,94.1Z" style="fill:#fff;stroke:#263238;stroke-linecap:round;stroke-linejoin:round"></path><path d="M559.18,94.55s-1.42-5.41-1.2-5.94,2.56-1.27,3.08-.82,1.73,6.53,1.58,6.91a3.32,3.32,0,0,1-2.54,1.11C559.26,95.6,559.18,94.55,559.18,94.55Z" style="fill:#fff;stroke:#263238;stroke-linecap:round;stroke-linejoin:round"></path><path d="M556.18,97S554.75,91.54,555,91s2.55-1.28,3.08-.83,1.73,6.54,1.58,6.91a3.29,3.29,0,0,1-2.55,1.11C556.25,98,556.18,97,556.18,97Z" style="fill:#fff;stroke:#263238;stroke-linecap:round;stroke-linejoin:round"></path><path d="M553.05,98.55s-1.33-5-1.12-5.51,2.37-1.19,2.86-.77,1.61,6.07,1.47,6.42a3,3,0,0,1-2.36,1C553.12,99.52,553.05,98.55,553.05,98.55Z" style="fill:#fff;stroke:#263238;stroke-linecap:round;stroke-linejoin:round"></path><path d="M562.1,103.18c-1.35-1.92,3.26-7.67,3.26-7.67s-6.14.38-5.56-.77,5.36-1.34,5.36-1.34,5.76-1,5.18,1.34-3.64,10.93-3.64,10.93" style="fill:#fff;stroke:#263238;stroke-linecap:round;stroke-linejoin:round"></path><path d="M668.88,167.16c-1.73-3.83-24.17-17.06-24.17-17.06l-25.69.38-34.91,2.68-2.79,19.34,22.35-.73,8.63,57.15s4.22,5.56,16.3,6.32,24-.57,29.92-4.21,4.41-8.83,4.41-8.83S670.6,171,668.88,167.16Z" style="fill:#4E60FF;stroke:#263238;stroke-linecap:round;stroke-linejoin:round"></path><polygon points="623.75 164.35 626.73 175.18 624.48 225.08 628.99 238.28 637.68 225.4 629.63 175.18 633.49 165.85 627.7 160.05 623.75 164.35" style="fill:#263238;stroke:#263238;stroke-linecap:round;stroke-linejoin:round"></polygon><path d="M581.62,153.36l-4,20.35s5.52.61,6.14.15,4.14-21.34,4.14-21.34Z" style="fill:#fff;stroke:#263238;stroke-linecap:round;stroke-linejoin:round"></path><path d="M625.2,157.51c.29-.58-3.78,4.8-3.78,4.8l-1.89,7.42,4.21-5.38,5.09,5.67,1-10.47Z" style="fill:#fff;stroke:#263238;stroke-linecap:round;stroke-linejoin:round"></path><polygon points="622.87 152.72 628.83 170.02 642.93 146.61 636.95 134.58 634.94 134.11 632.18 144.14 622.87 152.72" style="fill:#fff;stroke:#263238;stroke-linecap:round;stroke-linejoin:round"></polygon><polygon points="634.58 142.76 625.34 159.69 622.87 152.72 634.58 142.76" style="fill:#263238;stroke:#263238;stroke-linecap:round;stroke-linejoin:round"></polygon><path d="M642.5,143.56l-14,21.95s5.09,6.83,5,6.4S648,150.54,648,150.54Z" style="fill:#fff;stroke:#263238;stroke-linecap:round;stroke-linejoin:round"></path><path d="M606.61,115.74s-.13,14.29.38,14.67,3.16,3.16,3.16,3.16-2.53,7.46-2.15,7.84a39.25,39.25,0,0,0,4.55,1.89s2.65,9,3.67,10.5a4.66,4.66,0,0,0,4.42,1.77c1.27-.25,13.53-9.23,14.8-10.49s1.51-10.5,1.51-10.5,4.18-.25,4.68-3.41a5.31,5.31,0,0,0-1.39-4.81l-4.3-14s0-2-9-4.18a21.14,21.14,0,0,0-17.07,3.42C608.5,112.58,606.61,115.74,606.61,115.74Z" style="fill:#fff;stroke:#263238;stroke-linecap:round;stroke-linejoin:round"></path><path d="M616.47,131.92c.25.8.06,1.58-.44,1.74s-1.11-.36-1.37-1.16-.06-1.57.44-1.73S616.21,131.13,616.47,131.92Z" style="fill:#263238"></path><path d="M611.79,130.15a5.65,5.65,0,0,1,5.44-2.78" style="fill:none;stroke:#263238;stroke-linecap:round;stroke-linejoin:round"></path><path d="M620,144c1,1.3,1.13,2.88.29,3.51s-2.31.09-3.31-1.21-1.12-2.88-.29-3.51S619,142.68,620,144Z" style="fill:#263238"></path><path d="M610.27,106.64s-8.22,4.8-7.46,6.44,3.42,4.56,5.19,4.56,13-4.43,13.65-3.54-2.9,7.58-.76,7.84a64.42,64.42,0,0,0,6.58.12l1.26,7.08,3.8,1s2.27-3.92,3.41-4.55,4.3.76,4.3.76,2-9.48.76-13.66-7.21-7.71-14.42-8.85S610.27,106.64,610.27,106.64Z" style="fill:#263238;stroke:#263238;stroke-linecap:round;stroke-linejoin:round"></path><polygon points="590.4 158.2 591.78 170.79 598.23 168.95 598.84 155.75 590.4 158.2" style="fill:#4E60FF;stroke:#263238;stroke-linecap:round;stroke-linejoin:round"></polygon><path d="M558,136.09l2.69,1.38a64.6,64.6,0,0,0,33.06,7l8.38-.47a1.77,1.77,0,0,1,1.85,1.52l1.25,9.26a1.75,1.75,0,0,1-1.32,1.94L598.83,158a64.64,64.64,0,0,0-33.23,20.15l-1.92,2.19Z" style="fill:#fff;stroke:#263238;stroke-linecap:round;stroke-linejoin:round"></path><ellipse cx="557.71" cy="157.75" rx="8.6" ry="25.34" transform="translate(-17.15 83.86) rotate(-8.47)" style="fill:#4E60FF;stroke:#263238;stroke-linecap:round;stroke-linejoin:round"></ellipse><path d="M560.72,177.92c-3.14.47-7-8.18-8.68-19.32s-.47-20.55,2.67-21c2.49-.37,5.45,5,7.39,12.83.51,2,.95,4.21,1.29,6.5a67.1,67.1,0,0,1,.68,6.86C564.45,171.68,563.18,177.55,560.72,177.92Z" style="fill:#fff;stroke:#263238;stroke-linecap:round;stroke-linejoin:round"></path><path d="M564.07,163.77l-3.45-.92-1.52-10.2,3-2.24c.51,2,.95,4.21,1.29,6.5A67.1,67.1,0,0,1,564.07,163.77Z" style="fill:#fff;stroke:#263238;stroke-linecap:round;stroke-linejoin:round"></path><path d="M561.29,157.54c.42,2.82.12,5.19-.67,5.31s-1.78-2.07-2.2-4.88-.11-5.2.68-5.31S560.87,154.72,561.29,157.54Z" style="fill:#fff;stroke:#263238;stroke-linecap:round;stroke-linejoin:round"></path><line x1="526.13" y1="139.86" x2="539.77" y2="146.06" style="fill:none;stroke:#263238;stroke-linecap:round;stroke-linejoin:round"></line><line x1="524.89" y1="162.8" x2="539.77" y2="160.32" style="fill:none;stroke:#263238;stroke-linecap:round;stroke-linejoin:round"></line><line x1="545.35" y1="173.95" x2="533.57" y2="182.63" style="fill:none;stroke:#263238;stroke-linecap:round;stroke-linejoin:round"></line><path d="M598.83,158l5.08-1.24a1.75,1.75,0,0,0,1.32-1.94L604,145.53a1.77,1.77,0,0,0-1.85-1.52l-8.38.47c-1.64.09-3.28.11-4.92.08L592.18,160A66.22,66.22,0,0,1,598.83,158Z" style="fill:#4E60FF;stroke:#263238;stroke-linecap:round;stroke-linejoin:round"></path><path d="M598.54,163c.61-.15-10.14.77-10.14.77a2.92,2.92,0,0,0-.92,3.07,2.69,2.69,0,0,0,2.46,1.84s-.62,7.52.61,8.29,2.77,1.84,4.15,1.84h6.6S628,207,631.55,210.25s14.74,9.67,17.19,7.37,4.92-10,4.92-10l-10.44-10.9L605.45,172Z" style="fill:#fff;stroke:#263238;stroke-linecap:round;stroke-linejoin:round"></path><path d="M651.81,169.1l-7.52,24.72L659,202.88s11.51-23.95,12.59-26.56,2.15-6.6-.46-9.06-10.9-6-10.9-6" style="fill:#4E60FF;stroke:#263238;stroke-linecap:round;stroke-linejoin:round"></path><polygon points="641.22 195.05 644.6 191.06 662.41 199.35 654.42 210.25 641.22 195.05" style="fill:#fff;stroke:#263238;stroke-linecap:round;stroke-linejoin:round"></polygon></g><g id="freepik--character-3--inject-196"><path d="M392.48,218.82s-15.4-.37-16.52.94-13.71,32.48-15,40.92-1.69,15.4-1.5,16.71,3.56,5.26,4.88,5.07,7.13-3.38,8.07-4.13-.38-3.57-.38-3.57,1.32-.56,1.32-2.81-4.88-9.76-4.88-9.76l15.95-28.73h7.7Z" style="fill:#c9c9c9;stroke:#263238;stroke-linecap:round;stroke-linejoin:round"></path><path d="M372,274.76s-5.81,2.44-6.75,1.88-.94-2.63-.38-3,5.45-2.63,5.45-2.63" style="fill:#c9c9c9;stroke:#263238;stroke-linecap:round;stroke-linejoin:round"></path><path d="M366.57,268.76s1.88,2.06.75,3.56" style="fill:#c9c9c9;stroke:#263238;stroke-linecap:round;stroke-linejoin:round"></path><path d="M364.88,273.64l-3.94,2.63s.19,1.87,1.13,2.44" style="fill:#c9c9c9;stroke:#263238;stroke-linecap:round;stroke-linejoin:round"></path><path d="M434.34,213.19s-42.61,2.25-43.55,4.32-2.26,9.76-.75,15.58a4.7,4.7,0,0,0,2.62,3.38l22-2.82s8.45-7.13,12.39-10.89A50.69,50.69,0,0,0,434.34,213.19Z" style="fill:#4E60FF;stroke:#263238;stroke-linecap:round;stroke-linejoin:round"></path><path d="M487.27,183.15c0,3.94-6.74,3.31-8.63,6.57-4.3,7.46-7.2,16.9-17.08,16.9-14.2,0-25.72-10.51-25.72-23.47s11.52-23.46,25.72-23.46S487.27,170.19,487.27,183.15Z" style="fill:#263238;stroke:#263238;stroke-linecap:round;stroke-linejoin:round"></path><path d="M392.48,279.94s-5.5,7.69-6.59,12.63-15.81,52.3-15.81,52.3l-62.19,29.52s-11-.28-11.8,1.65-2.2,19.49-1.65,21.69S295.81,404,298,404s4.39-8.51,4.39-8.51l10.71-14.28s67.83-17,69.21-17.84,36-46.4,36-46.4l9.34,1.92,40.09,20.87s45.15,69.32,46.52,69.6,14.83-14.83,16.75-17.85,3.3-6.32.55-4.94-18.39,5.76-18.39,5.76-27-67.67-27.86-69-45-32.68-45-32.68l-2.2-7.41Z" style="fill:#263238;stroke:#263238;stroke-linecap:round;stroke-linejoin:round"></path><path d="M441.47,209.43s-17.08,5.82-23.09,14.08S391.54,280,391.16,282.65s4.7,7.69,17.27,8.45,25.35-1.13,28.16-3.57,4.7-8.45,4.7-8.45,12.57-37.73,12.76-42.61-3.38-12.2-3.38-12.2Z" style="fill:#4E60FF;stroke:#263238;stroke-linecap:round;stroke-linejoin:round"></path><path d="M416.12,259.75c-3.84,1.58-7.17,2.91-9.05,3.57" style="fill:none;stroke:#263238;stroke-linecap:round;stroke-linejoin:round"></path><path d="M440.27,249.49s-11,4.76-20.6,8.79" style="fill:none;stroke:#263238;stroke-linecap:round;stroke-linejoin:round"></path><line x1="443.38" y1="253.98" x2="431.28" y2="262.98" style="fill:none;stroke:#263238;stroke-linecap:round;stroke-linejoin:round"></line><path d="M481.08,180.34s1.51,6.76-.18,9.76-5.07,6.94-4.13,8.82,5.07,3.76,2.44,6.76-4.88,1.31-4.88,1.31-.57,5.07-2.26,6l-1.69.94s.94,3.75-1.31,4.69-4.32.38-7.51-.94-14.27,10.71-14.27,10.71l-5.82-19,5.45-6.94a42.89,42.89,0,0,1-2.82-10c-1.12-6.38,9.2-2.63,9.2-2.63s10.33-4.69,10.89-7.7,5.63-7.5,9.57-6.94S481.08,180.34,481.08,180.34Z" style="fill:#c9c9c9;stroke:#263238;stroke-linecap:round;stroke-linejoin:round"></path><path d="M454.8,194.42s-1.5-7.7-5.63-8.08S445,194.42,445.6,197s5.45,5.07,7.7,3.2" style="fill:#c9c9c9;stroke:#263238;stroke-linecap:round;stroke-linejoin:round"></path><path d="M472.07,190.47s4.7-2.06,4.7,3.2" style="fill:none;stroke:#263238;stroke-linecap:round;stroke-linejoin:round"></path><path d="M474.46,197.18c-.36,1.08-1.09,1.82-1.63,1.64s-.69-1.21-.33-2.29,1.09-1.81,1.63-1.63S474.82,196.1,474.46,197.18Z" style="fill:#263238"></path><polygon points="442.79 204.74 454.43 229.15 447.48 232.9 437.72 209.06 442.79 204.74" style="fill:#fff;stroke:#263238;stroke-linecap:round;stroke-linejoin:round"></polygon><path d="M480,241.91l8.63.94,1.5-26.47s-5.63-1.13-6.38-1.5-3.56-4.51-3.38-6.2,3.19-3.75,3.19-3.75,2.45-5.63,4.13-5.07a6.22,6.22,0,0,1,2.63,1.69s5.63,2.07,7.14,4.51,1.31,9.95,1.31,9.95,6.38,40.73,6.38,43.17-.18,4.13-2.25,4.88-31.35-5.25-31.35-5.25Z" style="fill:#c9c9c9;stroke:#263238;stroke-linecap:round;stroke-linejoin:round"></path><path d="M448.19,225.69,436,206.3s-17.4-.5-18.49-.67-13.19-8.39-14.95-9S386,200,386,200l-7.87,8.87,10.52,2.7,15.05-5.82L418,214.27l15.26-2.45,14,16.58Z" style="fill:#263238;stroke:#263238;stroke-linecap:round;stroke-linejoin:round"></path><path d="M481.84,241.35l-11.08,24.78s-31.35-12-38.3-19.9-.18-20.84,5.63-23.28S481.84,241.35,481.84,241.35Z" style="fill:#4E60FF;stroke:#263238;stroke-linecap:round;stroke-linejoin:round"></path><path d="M461.56,217.69l-5.82-5.06-.19,8.07S459.31,217.32,461.56,217.69Z" style="fill:#263238;stroke:#263238;stroke-linecap:round;stroke-linejoin:round"></path></g><g id="freepik--character-1--inject-196"><path d="M100.5,211.19l-16.36,6.26-9.38,60.14s-1.68,9.38-1.68,12S75.72,294,75.72,294l5.53.48a4.36,4.36,0,0,0,2.41.72c1.44,0,2.17-.48,2.41-1.92s2.88-4.81,3.36-7.7-5.29-12.27-5.29-12.27l14.2-44,4.81-1Z" style="fill:#fff;stroke:#263238;stroke-linecap:round;stroke-linejoin:round"></path><path d="M119.75,306.94l-11.55,48.6L56,392.59s-16.59.72-18,2.4-1.68,8.66-1.68,9.87-3.37,7.69-4.33,10.82-.72,8.42-.48,10.83.72,5.05,2.64,4.57,5.3-7.7,5.3-7.7l19.24-17.8s53.55-26.26,57.4-28.43,26.56-18.48,27.76-20.65,16.84-45.95,16.84-45.95Z" style="fill:#263238;stroke:#263238;stroke-linecap:round;stroke-linejoin:round"></path><path d="M178.45,198s-27.91-4.57-30.8-3.12-45.47,15.87-45.47,15.87l3.61,16.36,38-6.25s-20,50.76-20.69,53.16-2.64,3.37.49,4.82,50.28,8.17,51.72,5.77,11.55-26.46,11.55-26.46l26-20.21s44.5-1.93,44.5-4.09,0-6.26-1-7-45.95-18-45.95-18Z" style="fill:#4E60FF;stroke:#263238;stroke-linecap:round;stroke-linejoin:round"></path><polygon points="187.77 221.15 185.71 229.92 185.71 229.92 162.49 238.18 135.67 233.53 108.84 249.01 98 255.72 94.91 269.13 109.87 269.65 141.34 242.3 161.46 245.4 189.44 231.13 196.54 223.22 198.22 213.28 187.77 221.15" style="fill:#263238;stroke:#263238;stroke-linecap:round;stroke-linejoin:round"></polygon><line x1="161.61" y1="224.05" x2="164.97" y2="224.67" style="fill:none;stroke:#263238;stroke-linecap:round;stroke-linejoin:round"></line><polyline points="161.61 218.89 143.8 220.82 157.94 223.39" style="fill:none;stroke:#263238;stroke-linecap:round;stroke-linejoin:round"></polyline><path d="M143.65,266.21c-2.4.59-4.49,1-6.1,1.28" style="fill:none;stroke:#263238;stroke-linecap:round;stroke-linejoin:round"></path><path d="M183.5,254s-20.76,7.06-35.38,11" style="fill:none;stroke:#263238;stroke-linecap:round;stroke-linejoin:round"></path><path d="M183.74,259.55s-12.27,7-15.16,7.94" style="fill:none;stroke:#263238;stroke-linecap:round;stroke-linejoin:round"></path><path d="M232.33,233.81s6-8.18,7.22-9.14,13.71-3.61,16.84-1.69,6.5,7.7,6.5,10.59-4.57,6.73-5.78,7S232.33,233.81,232.33,233.81Z" style="fill:#fff;stroke:#263238;stroke-linecap:round;stroke-linejoin:round"></path><path d="M224,169.87s1.86,6.23,1.86,10.59-2.07,6.86-2.07,8.93,2.49,9.76,1.45,10.59-5.61,1.25-5.61,1.25-3.73,10.38-6.23,11-7.47-1.87-8.1-2.08-13.7,7.06-13.7,7.06l-6.85-22.84,4.15-6.65s-6.44-20.14-4.78-27.62,21.18-3.74,21.18-3.74-.83-3.73,1.87-3.73,5.82,2.7,5.82,2.7-.21-5.82,5-3.33,6.86,8.52,6.86,8.52,4.77-5.61,5.19-.63S224,169.87,224,169.87Z" style="fill:#fff;stroke:#263238;stroke-linecap:round;stroke-linejoin:round"></path><path d="M230,159.9c-.42-5-5.19.63-5.19.63s-1.67-6-6.86-8.52-5,3.33-5,3.33-3.12-2.7-5.82-2.7-1.87,3.73-1.87,3.73-19.52-3.73-21.18,3.74c-1.61,7.24,4.37,26.34,4.76,27.56,2.9-2,6.51-4.47,6.87-4.71.62-.42,4.57-.83,6-2.29s-.62-4.77-.62-4.77,8.52-2.29,9.76-3.74-1.24-5,0-7.06S224,169.87,224,169.87,230.41,164.89,230,159.9Z" style="fill:#263238;stroke:#263238;stroke-linecap:round;stroke-linejoin:round"></path><path d="M199.71,184.87s-2.05-9.21-6.15-6.82-4.78,8.87-2.73,11.6,5.8,1.71,5.8,1.71" style="fill:#fff;stroke:#263238;stroke-linecap:round;stroke-linejoin:round"></path><path d="M218.93,187.49c-.42,1.31-1.29,2.2-1.94,2s-.85-1.44-.43-2.75,1.29-2.2,1.94-2S219.35,186.18,218.93,187.49Z" style="fill:#263238"></path><path d="M215.67,181.29s4.77-.41,6.23,2.7" style="fill:none;stroke:#263238;stroke-linecap:round;stroke-linejoin:round"></path><path d="M216.71,201.44s-3.12-.21-4.78-4.15" style="fill:none;stroke:#263238;stroke-linecap:round;stroke-linejoin:round"></path><polygon points="205.28 210.16 197.39 203.51 198.22 213.28 205.28 210.16" style="fill:#263238;stroke:#263238;stroke-linecap:round;stroke-linejoin:round"></polygon><polygon points="183.5 191.47 176.52 197 183.5 226.59 193.84 215.76 183.5 191.47" style="fill:#fff;stroke:#263238;stroke-linecap:round;stroke-linejoin:round"></polygon><polygon points="193.84 215.76 195.05 227.55 201.54 212.64 193.84 215.76" style="fill:#fff;stroke:#263238;stroke-linecap:round;stroke-linejoin:round"></polygon><path d="M197.69,236.45l-5.05,5.06s.24,5.05,1.44,5.77,7,5.05,7.94,3.61-2.88-7.46-2.88-7.46l1.68-6.25Z" style="fill:#fff;stroke:#263238;stroke-linecap:round;stroke-linejoin:round"></path><path d="M249.9,227.55,218.38,236s-15.15-6.49-16.84-6.49-6,12.27-5.29,13.23,5.77,3.37,5.77,3.37,12.75,3.85,14.68,3.12a48.54,48.54,0,0,0,5.77-3.12s28.63-1.93,32.48-3.37,7.7-4.09,6.49-7.46S254.23,227.55,249.9,227.55Z" style="fill:#fff;stroke:#263238;stroke-linecap:round;stroke-linejoin:round"></path><line x1="204.19" y1="232.61" x2="202.02" y2="246.08" style="fill:none;stroke:#263238;stroke-linecap:round;stroke-linejoin:round"></line><line x1="209.48" y1="235.73" x2="208.28" y2="247.04" style="fill:none;stroke:#263238;stroke-linecap:round;stroke-linejoin:round"></line><line x1="214.53" y1="239.1" x2="212.85" y2="248" style="fill:none;stroke:#263238;stroke-linecap:round;stroke-linejoin:round"></line><polygon points="98.58 209.27 102.91 231.16 114.21 229.48 111.09 206.38 98.58 209.27" style="fill:#fff;stroke:#263238;stroke-linecap:round;stroke-linejoin:round"></polygon><path d="M122.63,276.63s-5.77,7.7-6.25,12.27,1.2,19.25,3.37,21.65,4.09,5.29,14.67,6,42.93-.33,42.93-.33l-44.8,40.48s-3.42,1.95-5.59,2.91-8.9,2.16-9.14,6.49,4.57,18.53,5.05,21.41,6.74,14,8.18,13.48a5.47,5.47,0,0,0,3.13-4.57,63,63,0,0,1,0-6.74c.24-2.41.24-4.81.72-5.77s5-14.44,5-14.44,17.7-11.88,20.11-13.56S184.9,341.16,197.79,330c13.1-11.35,21.5-20.54,23.18-23.18s4.9-6.92,1.05-12.94-29.14-10.5-29.14-10.5-45-4.57-47.39-4.33-15.88.48-15.88.48Z" style="fill:#263238;stroke:#263238;stroke-linecap:round;stroke-linejoin:round"></path></g><g id="freepik--character-2--inject-196"><path d="M230.57,253s-9.33,1.59-9.92,2.38S199.22,305,199.22,305s-5.76,9.13-5.56,10.72.79,9.33,2.38,9.53,11.11-3,12.7-4.37,1.79-8.14,1-9.33-3.17-4.76-3.17-5.35,24-33.15,24-33.15Z" style="fill:#fff;stroke:#263238;stroke-linecap:round;stroke-linejoin:round"></path><path d="M203.38,312.1s-1,3.17-.39,3.77,3.17,0,3.17,0-6.15,6.75-4.17,5.76,6.55-2.58,7.74-5.76-1.58-5.76-1.58-5.76" style="fill:#fff;stroke:#263238;stroke-linecap:round;stroke-linejoin:round"></path><path d="M204.77,316.27,197,318.85s-1.19,1-.59,1.58a2,2,0,0,1,.39,1.59" style="fill:#fff;stroke:#263238;stroke-linecap:round;stroke-linejoin:round"></path><path d="M278.4,244.62a73.94,73.94,0,0,0-9.33-.59c-2.77.2-40.48,8.13-40.48,8.13l2,20.84,29.37-5Z" style="fill:#4E60FF;stroke:#263238;stroke-linecap:round;stroke-linejoin:round"></path><path d="M288.52,238.87S275.62,244,270.07,249s-37.71,49-37.71,49l30.76,17.66s30.36-16.87,32.55-21.43,2.78-27.59,2.78-27.59Z" style="fill:#4E60FF;stroke:#263238;stroke-linecap:round;stroke-linejoin:round"></path><path d="M263.08,280.13l21.67-2.44-18.07,8.22" style="fill:none;stroke:#263238;stroke-linecap:round;stroke-linejoin:round"></path><path d="M255.51,281l3.6-.41" style="fill:none;stroke:#263238;stroke-linecap:round;stroke-linejoin:round"></path><line x1="240.72" y1="301.35" x2="260.11" y2="298.07" style="fill:none;stroke:#263238;stroke-linecap:round;stroke-linejoin:round"></line><path d="M336.75,229.34s-.79,4.57-2,6.55-3.78,4.17-3.78,5.36,1.79,5.16.6,6.15-5.76,2-5.76,2-5.16,6.54-7.93,7.93-9.33-5.16-9.33-5.16l-9.93,5.16-5.16-18.06,4.17-2s-.59-7.94,1.39-12.5,14.89-11.51,28-9.73S336.75,229.34,336.75,229.34Z" style="fill:#fff;stroke:#263238;stroke-linecap:round;stroke-linejoin:round"></path><polygon points="308.57 252.16 304.69 246.66 303.2 255.26 308.57 252.16" style="fill:#263238;stroke:#263238;stroke-linecap:round;stroke-linejoin:round"></polygon><path d="M331.51,237.4a4.58,4.58,0,0,0-4.77-3.91" style="fill:none;stroke:#263238;stroke-linecap:round;stroke-linejoin:round"></path><path d="M336.75,229.34s.2-4.17-.4-5.16-9.13-3.57-12.5-1-4.17,5-9.13,6.15-6.75,0-6.75,0-1.59-4.76-5-3-3.17,6-2.38,7.35l1.59,2.78-4.57.79s-5.75-12.11-5.75-19.85,14.68-16.47,22.82-16.87a20.25,20.25,0,0,1,13.69,4.77s8.34-6,12.9-3,5,10.72,4.17,12.9,4,3.37,1.59,9.92S340.32,233.91,336.75,229.34Z" style="fill:#263238;stroke:#263238;stroke-linecap:round;stroke-linejoin:round"></path><path d="M308.17,201.56s1.79-7.15-.4-11.32-27.78,1.39-30,11.71,13.89,12.7,13.89,12.7A40.76,40.76,0,0,1,308.17,201.56Z" style="fill:#263238;stroke:#263238;stroke-linecap:round;stroke-linejoin:round"></path><path d="M317.5,242s.59,4.37,3.17,5.76" style="fill:none;stroke:#263238;stroke-linecap:round;stroke-linejoin:round"></path><path d="M327.47,240.34c-.66,1.2-1.67,1.91-2.24,1.59s-.51-1.55.16-2.75,1.67-1.91,2.24-1.59S328.14,239.14,327.47,240.34Z" style="fill:#263238"></path><polygon points="294.48 235.69 302.02 260.7 297.06 268.83 288.52 238.87 294.48 235.69" style="fill:#fff;stroke:#263238;stroke-linecap:round;stroke-linejoin:round"></polygon><path d="M318.29,287.69l39.1-29.57s.6-9.93,1.39-11.91,6.15-2,6.15-2,4.76-5.36,6.35-4.77,1.39,3,1.39,3,7.15,10.91,5,14.29-14.09,6.94-14.09,6.94S327,306.94,324.45,308.33s-12.51-5-12.51-5Z" style="fill:#fff;stroke:#263238;stroke-linecap:round;stroke-linejoin:round"></path><path d="M319.29,286.5s-24-24.21-28.39-26.79-12.3-1-15.08,6.54,33.34,44.46,33.34,44.46Z" style="fill:#4E60FF;stroke:#263238;stroke-linecap:round;stroke-linejoin:round"></path><path d="M232.36,298s-19.44,21.18-22.25,29.63S197,387.09,197,387.09l-47.88,66.33s-10.63,10.32-9.69,12.2,11.26,14.08,17.52,16.27,7.51,1.25,6.57-.31-5.63-18.15-5.63-19.71V460.3s56.94-53.5,59.44-57.57S242,357.36,242,357.36l46.62,13.77-55.38,20s-4.38-3.75-5.95-2.19-3.12,10.64-3.75,11.89-2.5,10-2.82,12.83.94,7.2,1.88,6.88,7.51-8.13,7.51-8.13L248,395.53s65.71-12.2,71.65-15.64,8.76-8.45,7.51-12.51-32.85-25-40.67-30-22.22-17.21-22.22-17.21l-1.11-4.46Z" style="fill:#263238;stroke:#263238;stroke-linecap:round;stroke-linejoin:round"></path></g></svg>
